<?xml version="1.0" encoding="utf-8"?>
<svg version="1.1" xmlns="http://www.w3.org/2000/svg" x="0px" y="0px"
     width="24px" height="24px" viewBox="0 0 24 24" enable-background="new 0 0 24 24" xml:space="preserve">
<path d="M16.91,16.363h2.181v-1.637h1.638L18.001,12l-2.728,2.729h1.637V16.363z M16.363,16.91h-1.637v-1.637L12,18.001l2.729,2.728
	v-1.638h1.635V16.91L16.363,16.91z M24,18.001l-2.729-2.728v1.637h-1.635v2.181h1.635v1.638L24,18.001z M19.091,19.637H16.91v1.637
	h-1.637L18.001,24l2.728-2.729h-1.638V19.637z"/>
    <path d="M3.015,17.113l4.918-5.084L15,11.81L3,0.887L3.015,17.113z"/>
</svg>
